<svg version="1.2" xmlns="http://www.w3.org/2000/svg" viewBox="0 0 100 100">
	<style>
		.s0 { fill: #0b0b0c } 
		.s1 { fill: #ffffff } 
		.s2 { fill: none;stroke: #ffffff;stroke-linecap: round;stroke-linejoin: round;stroke-width: 8 } 
	</style>
	<path fill-rule="evenodd" class="s0" d="m24 0h52c13.25 0 24 10.75 24 24v52c0 13.25-10.75 24-24 24h-52c-13.25 0-24-10.75-24-24v-52c0-13.25 10.75-24 24-24z"/>
	<path fill-rule="evenodd" class="s1" d="m13 56.5c-3.59 0-6.5-2.91-6.5-6.5 0-3.59 2.91-6.5 6.5-6.5 3.59 0 6.5 2.91 6.5 6.5 0 3.59-2.91 6.5-6.5 6.5z"/>
	<path class="s2" d="m13 50h4c10 0 10-16 21-16 11 0 9 32 20 32 9 0 9-16 17-16h6"/>
	<path class="s1" d="m75 40l20 10-20 10z"/>
</svg>